<svg xmlns="http://www.w3.org/2000/svg" width="532.34" height="532.34"><path fill="#fff" d="M472 241.29c7.57-9.79 13.58-17.64 18.02-23.57 31.96-42.5 45.82-69.64 41.57-81.48l-1.67-2.77c-1.1-1.67-3.97-3.2-8.59-4.58-4.62-1.38-10.53-1.6-17.73-.69l-79.83.56c-1.84-.18-3.7-.14-5.54.13-1.85.28-3.05.56-3.6.83l-1.39.7-1.1.83c-.93.55-1.95 1.52-3.05 2.91a18.8 18.8 0 0 0-2.78 4.85 452.18 452.18 0 0 1-29.65 62.37 595.73 595.73 0 0 1-18.85 29.79c-5.73 8.41-10.53 14.6-14.41 18.57a100 100 0 0 1-10.53 9.56c-3.15 2.4-5.55 3.42-7.2 3.05-1.67-.37-3.24-.73-4.72-1.11a18.3 18.3 0 0 1-6.23-6.79c-1.58-2.86-2.63-6.46-3.2-10.8-.54-4.35-.87-8.1-.96-11.24-.1-3.14-.05-7.57.14-13.3s.28-9.6.28-11.64c0-7.02.14-14.64.41-22.87.28-8.22.51-14.73.7-19.54.18-4.8.27-9.88.27-15.24 0-5.35-.32-9.56-.97-12.62-.65-3.04-1.63-6-2.91-8.86a14.88 14.88 0 0 0-5.69-6.65 32.05 32.05 0 0 0-9.28-3.75c-9.8-2.22-22.27-3.4-37.42-3.6-34.37-.36-56.45 1.86-66.24 6.66a37.42 37.42 0 0 0-10.53 8.31c-3.33 4.07-3.79 6.3-1.39 6.65 11.1 1.67 18.94 5.64 23.56 11.92l1.67 3.33c1.29 2.4 2.58 6.65 3.88 12.75 1.29 6.1 2.12 12.84 2.5 20.23.92 13.5.92 25.03 0 34.65-.93 9.61-1.8 17.1-2.64 22.44-.83 5.36-2.08 9.7-3.74 13.02-1.66 3.34-2.77 5.37-3.33 6.11a4.88 4.88 0 0 1-1.38 1.38 20.8 20.8 0 0 1-7.48 1.39c-2.6 0-5.73-1.3-9.43-3.89-3.7-2.58-7.53-6.14-11.5-10.67-3.98-4.52-8.45-10.85-13.45-18.99a329.13 329.13 0 0 1-15.52-28.82l-4.43-8.04c-2.77-5.16-6.56-12.7-11.36-22.58s-9.06-19.44-12.75-28.69c-1.48-3.87-3.7-6.83-6.65-8.87l-1.39-.83c-.92-.74-2.4-1.52-4.43-2.35a29.86 29.86 0 0 0-6.38-1.8l-75.94.54c-7.76 0-13.03 1.77-15.8 5.28l-1.1 1.66c-.56.93-.84 2.41-.84 4.44 0 2.03.56 4.53 1.67 7.48a914.78 914.78 0 0 0 36.16 75.38c13.03 24.21 24.35 43.71 33.96 58.49 9.6 14.8 19.4 28.73 29.38 41.85 9.98 13.13 16.59 21.53 19.82 25.22 3.23 3.7 5.77 6.47 7.62 8.31l6.92 6.66c4.43 4.44 10.95 9.75 19.55 15.94 8.59 6.2 18.1 12.29 28.55 18.29 10.43 6 22.59 10.9 36.44 14.7 13.86 3.79 27.34 5.3 40.47 4.56h31.87c6.47-.55 11.36-2.57 14.69-6.1l1.1-1.38a18.8 18.8 0 0 0 2.08-5.12c.65-2.3.98-4.85.98-7.62a91.2 91.2 0 0 1 1.8-21.48c1.38-6.38 2.95-11.17 4.71-14.42a35.41 35.41 0 0 1 5.96-8.17c2.22-2.23 3.78-3.55 4.71-4.02.93-.45 1.67-.78 2.22-.97 4.43-1.48 9.65-.05 15.66 4.3 6 4.35 11.64 9.7 16.91 16.07a490.65 490.65 0 0 0 18.98 21.48c7.4 7.94 13.86 13.86 19.4 17.74l5.55 3.33c3.7 2.21 8.5 4.24 14.41 6.1 5.91 1.84 11.1 2.3 15.52 1.38l70.96-1.11c7.02 0 12.47-1.15 16.35-3.47 3.88-2.3 6.19-4.85 6.93-7.62.73-2.77.78-5.9.14-9.41-.65-3.51-1.3-5.96-1.94-7.34a37.6 37.6 0 0 0-1.8-3.47c-9.25-16.62-26.9-37.05-52.95-61.25l-.55-.55-.28-.28-.27-.27h-.28c-11.83-11.28-19.3-18.85-22.45-22.74-5.73-7.38-7.02-14.86-3.88-22.44 2.2-5.75 10.52-17.85 24.93-36.33z"/></svg>