<svg xmlns="http://www.w3.org/2000/svg" width="31.66" height="31.66"><path fill="#fff" d="M16.88.41a2.5 2.5 0 0 0-2.81.04L1.48 9.2a2.5 2.5 0 0 0-1.07 2.06v9.44c0 .84.42 1.62 1.13 2.09l12.79 8.45a2.5 2.5 0 0 0 2.75 0l13.05-8.62a2.5 2.5 0 0 0 1.12-2.08v-9.28a2.5 2.5 0 0 0-1.12-2.09L16.88.41zm9.74 10.24l-4.82 3.23-4.52-3.29-.03-6.46 9.37 6.51zM13.98 4.13v6.33L9.35 13.7l-4.63-3.1 9.26-6.47zm-10.52 9.6l2.99 2-3 2.09v-4.1zm10.6 13.48l-9.33-6.25 4.66-3.26 4.67 3.13v6.39zm-1.77-11.54l3.02-2.1 3.52 2.3-3.12 2.1-3.42-2.3zm5.06 11.54v-6.38l4.47-3 4.8 3.17-9.27 6.21zm10.6-9.28l-3.16-2.08 3.16-2.13v4.2z"/></svg>