<?xml version="1.0" encoding="UTF-8"?>
<svg width="14px" height="14px" viewBox="0 0 14 14" version="1.1" xmlns="http://www.w3.org/2000/svg" xmlns:xlink="http://www.w3.org/1999/xlink">
    <!-- Generator: Sketch 53.2 (72643) - https://sketchapp.com -->
    <title>icon_case</title>
    <desc>Created with Sketch.</desc>
    <g id="Symbols" stroke="none" stroke-width="1" fill="none" fill-rule="evenodd">
        <path d="M4,9 C4,9.55228475 4.44771525,10 5,10 L9,10 C9.55228475,10 10,9.55228475 10,9 L14,9 L14,13 C14,13.5522847 13.5522847,14 13,14 L1,14 C0.44771525,14 0,13.5522847 0,13 L0,9 L4,9 L4,9 Z M3,3 L3,1 C3,0.44771525 3.44771525,-2.27373675e-13 4,-2.27373675e-13 L10,-2.27373675e-13 C10.5522847,-2.27373675e-13 11,0.44771525 11,1 L11,3 L13,3 C13.5522847,3 14,3.44771525 14,4 L14,7 C14,7.55228475 13.5522847,8 13,8 L1,8 C0.44771525,8 0,7.55228475 0,7 L0,4 C-1.11022302e-16,3.44771525 0.44771525,3 1,3 L3,3 Z M5,2 L5,3 L9,3 L9,2 L5,2 Z" id="icon_case" fill="#000000"></path>
    </g>
</svg>