<svg xmlns="http://www.w3.org/2000/svg" width="90" height="90"><path fill="#fff" d="M65.7 10.5c1.18 2.66 1.94 7.07.8 10.3 4.63 3.95 6.22 13.55 3.99 21.4 6.59.5 14.44-.25 19.51 1.78-4.74-.61-11.2-1.8-17.32-1.4-1.16.09-2.87-.04-2.79 1.6 7.08.55 14.1 1.15 19.91 2.97-5.76-.94-12.75-2.38-19.9-2.58-2.97 5.84-8.92 8.7-17.13 9.3.88 1.93 2.57 2.66 2.98 5.75.62 4.62-.96 11.38.6 14.46.75 1.48 1.97 1.52 2.79 2.78-2.01 2.38-7-.27-7.57-2.78-.97-4.3 1.48-10.95-1.2-13.86.2 4.68-1.1 11.26.2 15.45.52 1.64 2.01 2.28 1.6 3.76-9.35.95-5.44-12.1-6.97-19.8-1.41.1-.8 2.1-.8 2.96-.04 7.53 1.54 17.85-6.57 16.84-.23-1.58 1.1-2.12 1.6-3.56 1.47-4.23-.28-10.54.4-15.65-3.1 2.33.32 10.48-1.6 14.66-1.1 2.4-4.66 3.45-7.36 2.37.35-1.79 2.2-1.5 2.98-3.17 1.1-2.32 0-5.67.4-9.1-5.73 1.14-10.17-.17-12.35-3.77-.97-1.62-1.21-3.52-2.39-4.95-1.17-1.43-3.04-1.63-3.58-3.57 7.1-1.7 7.37 7.3 13.74 7.53 1.95.07 2.97-.56 4.78-.99a8.43 8.43 0 0 1 3.18-5.15c-7.93-1.09-14.47-3.56-17.52-9.5-7.2.35-13.8 1.31-19.91 2.76 5.54-2.01 12.38-2.73 19.71-2.97-.43-2.6-4.22-1.88-6.57-1.78-4.37.2-9.87.73-13.34 1.39 5.03-1.8 12.1-1.57 18.92-1.59-2.09-6.54-1.37-16.93 3.18-20.8-1.29-3.25-.89-8.56.8-11.09 5.08.23 8.16 2.44 11.35 4.56a39.55 39.55 0 0 1 13.54-1.39c2.28.13 4.65 1.15 6.37.99 1.68-.16 3.54-2.05 5.18-2.77 2.13-.94 3.93-1.3 6.37-1.39z"/></svg>